<?xml version="1.0" encoding="UTF-8" standalone="no"?><!DOCTYPE svg PUBLIC "-//W3C//DTD SVG 1.1//EN" "http://www.w3.org/Graphics/SVG/1.1/DTD/svg11.dtd"><svg width="100%" height="100%" viewBox="0 0 1524 888" version="1.1" xmlns="http://www.w3.org/2000/svg" xmlns:xlink="http://www.w3.org/1999/xlink" xml:space="preserve" xmlns:serif="http://www.serif.com/" style="fill-rule:evenodd;clip-rule:evenodd;stroke-linejoin:round;stroke-miterlimit:2;"><rect id="Artboard1" x="0" y="0" width="1523.97" height="887.72" style="fill:none;"/><clipPath id="_clip1"><rect x="0" y="0" width="1523.97" height="887.72"/></clipPath><g clip-path="url(#_clip1)"><g><path d="M130.391,347.509c-35.312,0 -64.754,-11.871 -88.337,-35.617c-23.596,-23.742 -35.383,-53.108 -35.383,-88.104c0,-34.988 11.787,-64.363 35.383,-88.104c23.583,-23.742 53.025,-35.617 88.337,-35.617c22.8,0 43.584,5.467 62.33,16.404c18.745,10.938 32.958,25.621 42.645,44.05l-52.02,30.463c-4.688,-9.684 -11.796,-17.342 -21.321,-22.963c-9.534,-5.625 -20.234,-8.437 -32.104,-8.437c-18.121,0 -33.121,6.016 -44.988,18.046c-11.879,12.029 -17.808,27.412 -17.808,46.158c0,18.437 5.929,33.667 17.808,45.692c11.867,12.029 26.867,18.045 44.988,18.045c12.187,0 23.041,-2.733 32.57,-8.204c9.53,-5.466 16.638,-13.041 21.325,-22.729l52.488,29.992c-10.313,18.437 -24.838,33.204 -43.583,44.287c-18.746,11.084 -39.53,16.638 -62.33,16.638" style="fill:#fff;fill-rule:nonzero;"/><rect x="273.273" y="-1.159" width="60.454" height="342.104" style="fill:#fff;"/><path d="M449.19,270.181c12.025,12.188 27.1,18.275 45.225,18.275c18.117,0 33.271,-6.087 45.459,-18.275c12.183,-12.183 18.275,-27.65 18.275,-46.396c0,-18.745 -6.092,-34.208 -18.275,-46.395c-12.188,-12.18 -27.342,-18.275 -45.459,-18.275c-18.125,0 -33.2,6.095 -45.225,18.275c-12.033,12.187 -18.041,27.65 -18.041,46.395c0,18.746 6.008,34.213 18.041,46.396m133.329,41.475c-24.062,23.896 -53.425,35.854 -88.104,35.854c-34.679,0 -63.971,-11.958 -87.871,-35.854c-23.9,-23.9 -35.85,-53.191 -35.85,-87.871c0,-34.679 11.95,-63.966 35.85,-87.87c23.9,-23.896 53.192,-35.846 87.871,-35.846c34.679,0 64.042,11.95 88.104,35.846c24.055,23.904 36.084,53.191 36.084,87.87c0,34.68 -12.029,63.971 -36.084,87.871" style="fill:#fff;fill-rule:nonzero;"/><path d="M813.973,106.625l60.454,0l0,234.321l-60.454,0l0,-26.242c-14.688,21.871 -37.959,32.804 -69.829,32.804c-25.621,0 -46.788,-8.591 -63.5,-25.779c-16.717,-17.175 -25.071,-40.921 -25.071,-71.233l0,-143.871l60.454,0l0,136.375c0,15.629 4.217,27.579 12.654,35.85c8.433,8.283 19.679,12.417 33.742,12.417c15.616,0 28.116,-4.838 37.487,-14.521c9.375,-9.688 14.063,-24.208 14.063,-43.583l0,-126.538Z" style="fill:#fff;fill-rule:nonzero;"/><path d="M1084.45,313.638c-5.504,-12.692 -6.9,-26.125 -4.766,-38.817c-11.542,10.021 -25.792,15.034 -42.675,15.034c-8.713,0 -16.763,-1.313 -24.075,-4.025c-0.038,18.32 3.7,36.683 11.258,54.016l3.325,7.642c25.304,-0.292 46.05,-7.521 62.275,-21.608l-5.342,-12.242Z" style="fill:#fff;fill-rule:nonzero;"/><path d="M1162.13,12.918l0,328.037l-60.463,0l0,-27.645c-3.617,4.683 -7.6,8.875 -11.871,12.57l-5.341,-12.241c-5.505,-12.692 -6.9,-26.125 -4.767,-38.817c1.275,-1.067 2.508,-2.217 3.7,-3.45c9.612,-9.737 15.4,-21.608 17.417,-35.696c0.57,-3.779 0.862,-7.762 0.862,-11.871c0,-19.387 -6.083,-35.245 -18.279,-47.566c-1.767,-1.809 -3.658,-3.492 -5.588,-5.054c-11.17,-8.996 -24.812,-13.471 -40.787,-13.471c-18.733,0 -34.3,6.158 -46.625,18.525c-12.363,12.321 -18.525,28.179 -18.525,47.566c0,19.346 6.162,35.205 18.525,47.567c6.575,6.571 14.092,11.421 22.55,14.458c-0.038,18.321 3.7,36.684 11.258,54.013l3.325,7.642c-0.575,0.041 -1.15,0.041 -1.762,0.041c-31.55,0 -58.496,-11.95 -80.842,-35.858c-22.346,-23.908 -33.517,-53.196 -33.517,-87.863c0,-34.712 11.171,-64 33.517,-87.904c22.346,-23.866 49.292,-35.821 80.842,-35.821c32.816,0 58.121,11.38 75.908,34.18l0,-121.342l60.463,0Z" style="fill:#fff;fill-rule:nonzero;"/><path d="M1489.74,749.138l-236.5,102.95c-27.208,11.842 -58.867,-0.612 -70.708,-27.82l-102.95,-236.5c-11.842,-27.209 0.612,-58.867 27.82,-70.709l236.5,-102.95c27.209,-11.846 58.863,0.613 70.709,27.821l102.95,236.5c11.841,27.208 -0.613,58.867 -27.821,70.708" style="fill:#ec4b36;fill-rule:nonzero;"/><path d="M1390.32,506.904l-41.238,-94.721l-78.212,-179.713c-14.333,-32.9 -40.625,-58.287 -74.058,-71.47c-11.259,-4.438 -22.921,-7.313 -34.63,-8.588l0,66.546c3.571,0.779 7.109,1.846 10.555,3.204c17.087,6.738 30.562,19.717 37.875,36.558l78.083,179.421l41.367,95.009c5.091,11.708 6.816,24.316 5.133,36.641c-0.738,5.421 -2.133,10.763 -4.188,15.979c-3.366,8.584 -8.258,16.225 -14.462,22.634c-0.283,0.287 -0.571,0.616 -0.9,0.904c-6,5.996 -13.146,10.842 -21.196,14.375c-9.654,4.192 -19.925,6.079 -30.192,5.667c-7.558,-0.284 -15.116,-1.846 -22.429,-4.721c-6.9,-2.713 -13.225,-6.45 -18.771,-11.092c-8.216,-6.779 -14.745,-15.446 -19.1,-25.467l-41.362,-95.054l-72.75,-167.137l-5.338,-12.242c-5.504,-12.692 -6.9,-26.121 -4.766,-38.817c2.546,-14.87 9.9,-28.754 21.112,-39.145c0.579,-3.775 0.863,-7.763 0.863,-11.871c0,-19.388 -6.079,-35.242 -18.275,-47.567c-1.771,-1.808 -3.659,-3.492 -5.588,-5.05c-25.137,15.117 -44.529,37.992 -55.454,65.763c-6.242,15.812 -9.367,32.325 -9.408,48.879c-0.038,18.321 3.7,36.683 11.258,54.016l3.325,7.642l74.883,172.067l41.242,94.725c14.333,32.941 40.625,58.329 74.058,71.471c15.98,6.287 32.659,9.445 49.292,9.445c9.121,0 18.238,-0.941 27.192,-2.833c0.987,-0.204 1.933,-0.408 2.921,-0.617c8.008,-1.887 15.895,-4.475 23.533,-7.804c6.204,-2.708 12.121,-5.833 17.746,-9.362c24.316,-15.117 43.046,-37.588 53.729,-64.738c13.146,-33.437 12.529,-69.996 -1.85,-102.937" style="fill:#ec4b36;fill-rule:nonzero;"/><path d="M1300.34,643.057c-13.996,6.092 -30.283,-0.317 -36.371,-14.312c-6.096,-13.996 0.313,-30.284 14.308,-36.375c13.996,-6.092 30.284,0.316 36.375,14.312c6.092,13.996 -0.316,30.283 -14.312,36.375m49.821,-51.829c-14.604,-33.558 -53.788,-48.971 -87.342,-34.367c-33.554,14.604 -48.967,53.788 -34.362,87.342c11.479,26.367 38.133,41.525 65.304,39.725l18.846,43.287c4.925,11.317 18.087,16.492 29.4,11.567c11.316,-4.925 16.495,-18.087 11.57,-29.404l-18.841,-43.288c19.833,-18.662 26.9,-48.495 15.425,-74.862" style="fill:#fff;fill-rule:nonzero;"/><path d="M78.373,518.216c0,6.254 4.138,11.329 12.417,15.233c8.275,3.904 18.354,7.342 30.229,10.309c11.867,2.97 23.737,6.725 35.617,11.25c11.87,4.529 21.945,12.108 30.229,22.725c8.271,10.625 12.416,23.9 12.416,39.833c0,24.067 -8.983,42.575 -26.945,55.533c-17.971,12.963 -40.384,19.45 -67.25,19.45c-48.117,0 -80.921,-18.583 -98.413,-55.766l52.488,-29.525c6.866,20.312 22.175,30.462 45.925,30.462c21.554,0 32.333,-6.717 32.333,-20.154c0,-6.246 -4.142,-11.321 -12.417,-15.233c-8.283,-3.9 -18.354,-7.413 -30.225,-10.538c-11.879,-3.121 -23.75,-7.033 -35.616,-11.717c-11.88,-4.687 -21.955,-12.104 -30.23,-22.262c-8.283,-10.15 -12.42,-22.883 -12.42,-38.196c0,-23.117 8.508,-41.312 25.541,-54.596c17.029,-13.275 38.196,-19.912 63.5,-19.912c19.054,0 36.392,4.291 52.021,12.883c15.621,8.596 27.958,20.854 37.021,36.788l-51.55,28.12c-7.496,-15.933 -19.996,-23.9 -37.492,-23.9c-7.812,0 -14.291,1.721 -19.446,5.155c-5.154,3.441 -7.733,8.125 -7.733,14.058" style="fill:#ec4b36;fill-rule:nonzero;"/><path d="M314.982,616.395c12.183,12.346 27.65,18.513 46.396,18.513c18.746,0 34.283,-6.167 46.629,-18.513c12.337,-12.337 18.512,-28.192 18.512,-47.567c0,-19.366 -6.175,-35.22 -18.512,-47.566c-12.346,-12.338 -27.883,-18.513 -46.629,-18.513c-18.746,0 -34.213,6.175 -46.396,18.513c-12.183,12.346 -18.279,28.2 -18.279,47.566c0,19.375 6.096,35.23 18.279,47.567m111.537,-164.729l60.455,0l0,234.321l-60.455,0l0,-27.65c-18.125,22.812 -43.583,34.212 -76.387,34.212c-31.246,0 -58.042,-11.95 -80.375,-35.854c-22.342,-23.896 -33.508,-53.187 -33.508,-87.867c0,-34.679 11.166,-63.97 33.508,-87.866c22.333,-23.904 49.129,-35.85 80.375,-35.85c32.804,0 58.262,11.404 76.387,34.208l0,-27.654Z" style="fill:#ec4b36;fill-rule:nonzero;"/><path d="M774.856,546.803l119.504,0c-3.442,-15.934 -10.546,-27.805 -21.325,-35.617c-10.779,-7.808 -23.042,-11.713 -36.788,-11.713c-16.25,0 -29.687,4.142 -40.304,12.417c-10.621,8.279 -17.654,19.917 -21.087,34.913m0.937,46.866c8.121,29.367 30.146,44.05 66.075,44.05c23.121,0 40.613,-7.804 52.492,-23.433l48.737,28.117c-23.125,33.437 -57.175,50.145 -102.162,50.145c-38.746,0 -69.825,-11.716 -93.259,-35.145c-23.433,-23.434 -35.145,-52.959 -35.145,-88.575c0,-35.3 11.55,-64.742 34.675,-88.338c23.116,-23.587 52.795,-35.379 89.041,-35.379c34.363,0 62.717,11.871 85.059,35.617c22.333,23.741 33.504,53.112 33.504,88.1c0,7.816 -0.779,16.091 -2.342,24.841l-176.675,0Z" style="fill:#ec4b36;fill-rule:nonzero;"/><path d="M675.559,464.493c-33.12,-2.5 -49.675,10.779 -49.675,39.833l0,2.342l49.675,0l0,58.112l-49.675,0l0,176.208l-60.458,0l0,-176.208l-33.737,0l0,-58.112l33.741,0l0,-2.342c0,-33.117 9.209,-58.267 27.65,-75.45c18.429,-17.179 45.925,-24.679 82.479,-22.496l0,58.113Z" style="fill:#ec4b36;fill-rule:nonzero;"/><path d="M596.873,743.822c-7.088,0 -14.096,1.804 -20.459,5.346c-9.837,5.483 -16.958,14.467 -20.037,25.3c-3.083,10.837 -1.763,22.221 3.721,32.062c5.479,9.838 14.462,16.955 25.3,20.034c22.358,6.366 45.733,-6.654 52.096,-29.017c3.083,-10.833 1.762,-22.221 -3.721,-32.058c-5.479,-9.842 -14.467,-16.959 -25.3,-20.038c-3.829,-1.091 -7.725,-1.629 -11.6,-1.629m0.025,145.979c-9.379,0 -18.904,-1.279 -28.363,-3.971c-55.037,-15.658 -87.083,-73.175 -71.425,-128.22c7.588,-26.663 25.104,-48.775 49.321,-62.267c24.221,-13.496 52.242,-16.746 78.904,-9.158c26.663,7.587 48.775,25.1 62.267,49.316c13.492,24.221 16.742,52.246 9.154,78.904c-12.971,45.588 -54.654,75.396 -99.858,75.396" style="fill:#ec4b36;fill-rule:nonzero;"/></g></g></svg>